<?xml version="1.0" standalone="no"?>
<!DOCTYPE svg PUBLIC "-//W3C//DTD SVG 20010904//EN"
 "http://www.w3.org/TR/2001/REC-SVG-20010904/DTD/svg10.dtd">
<svg version="1.0" xmlns="http://www.w3.org/2000/svg"
 width="700.000000pt" height="700.000000pt" viewBox="0 0 700.000000 700.000000"
 preserveAspectRatio="xMidYMid meet">
<metadata>
Created by potrace 1.14, written by Peter Selinger 2001-2017
</metadata>
<g transform="translate(0.000000,700.000000) scale(0.100000,-0.100000)"
fill="#000000" stroke="none">
<path d="M3308 5695 c-2 -1 -34 -6 -73 -10 -107 -10 -289 -50 -414 -90 -650
-210 -1154 -717 -1369 -1375 -37 -111 -69 -244 -77 -321 -3 -30 -10 -81 -15
-114 -9 -62 -6 -404 4 -465 6 -39 29 -172 31 -180 1 -3 7 -31 14 -64 l13 -58
171 7 c95 3 188 8 207 10 19 2 73 6 120 10 47 3 101 8 120 10 119 12 167 18
185 21 11 2 45 6 75 9 30 3 66 7 80 10 14 2 48 7 75 10 28 3 61 8 75 10 14 2
43 6 65 10 22 3 56 8 75 11 19 2 46 6 60 9 14 2 39 7 55 9 44 7 75 13 225 40
171 32 192 36 210 41 8 2 31 7 50 10 52 9 482 105 490 110 4 2 22 7 40 10 19
3 92 22 164 41 72 19 138 37 146 39 8 2 71 20 140 39 69 20 132 38 140 40 56
16 427 134 455 146 11 4 56 20 100 35 112 39 334 125 493 192 129 55 133 57
127 82 -4 14 -9 39 -12 56 -26 155 -147 457 -257 640 -31 52 -134 198 -176
250 -54 67 -280 284 -350 336 -278 207 -578 341 -905 404 -32 6 -59 10 -165
24 -59 8 -384 13 -392 6z"/>
<path d="M5447 4772 c4 -9 9 -19 13 -22 11 -8 124 -181 159 -242 37 -66 36
-65 82 -73 132 -23 294 -77 365 -121 84 -52 125 -105 143 -182 9 -44 -5 -80
-52 -125 -138 -135 -578 -347 -1122 -541 -66 -24 -127 -46 -135 -49 -29 -11
-277 -90 -390 -124 -316 -95 -864 -237 -994 -257 -21 -4 -42 -8 -46 -11 -3 -2
-22 -7 -41 -10 -19 -3 -53 -10 -77 -16 -23 -5 -59 -12 -80 -15 -20 -3 -53 -9
-72 -14 -19 -5 -51 -12 -70 -15 -19 -3 -57 -10 -85 -15 -113 -22 -469 -79
-530 -85 -11 -2 -38 -5 -60 -8 -22 -3 -62 -9 -90 -12 -27 -3 -66 -8 -85 -10
-19 -2 -60 -7 -90 -10 -30 -3 -68 -8 -85 -10 -16 -2 -68 -7 -115 -10 -47 -4
-96 -8 -109 -10 -142 -23 -754 -23 -876 -1 -197 37 -239 68 -239 175 0 90 45
172 153 280 47 48 116 109 153 135 62 44 68 51 69 84 0 21 2 44 3 52 2 8 6 49
10 90 4 41 14 106 22 143 8 38 14 72 14 77 0 12 -208 -92 -370 -185 -150 -86
-279 -169 -355 -228 -27 -21 -66 -50 -85 -64 -19 -15 -84 -76 -145 -137 -168
-170 -237 -303 -231 -444 10 -191 142 -365 370 -486 135 -72 377 -147 566
-176 41 -6 86 -13 100 -16 239 -39 796 -49 1125 -19 28 2 86 7 130 11 44 3 91
8 105 9 14 2 57 6 95 9 39 3 81 8 95 11 14 3 49 7 78 10 29 3 81 9 115 14 34
6 80 12 102 16 22 3 65 10 95 15 30 5 73 12 95 15 23 3 52 7 65 10 14 3 52 10
85 15 33 6 92 17 130 25 39 8 86 17 105 20 19 3 67 13 105 21 39 8 81 17 95
19 44 6 373 86 535 130 55 15 107 29 115 31 8 2 53 14 100 28 47 13 123 36
170 49 145 42 659 219 752 260 18 8 80 34 138 57 217 88 491 222 690 338 92
53 310 197 320 212 3 4 12 11 21 16 34 19 127 101 216 191 211 213 307 435
275 635 -15 100 -32 137 -92 205 -78 87 -193 155 -355 209 -59 19 -115 37
-124 39 -97 22 -266 55 -306 60 -27 3 -66 8 -85 11 -100 14 -247 24 -427 29
-151 4 -162 3 -156 -13z"/>
<path d="M5290 2496 c-330 -127 -728 -251 -1151 -361 -155 -40 -484 -115 -564
-129 -33 -6 -117 -22 -155 -31 -25 -5 -278 -49 -354 -61 -21 -3 -48 -8 -60
-10 -11 -2 -39 -6 -61 -9 -22 -3 -56 -8 -75 -11 -19 -2 -48 -6 -65 -8 -114
-14 -142 -18 -155 -21 -8 -2 -49 -7 -90 -11 -41 -3 -88 -8 -105 -9 -16 -2 -68
-7 -115 -11 -47 -4 -93 -9 -102 -10 -10 -1 -37 -2 -60 -3 l-43 -1 40 -35 c66
-56 253 -179 355 -232 420 -219 897 -292 1367 -208 105 18 296 72 360 101 17
8 36 14 41 14 6 0 63 25 127 56 359 171 651 428 871 764 49 75 125 211 152
273 6 13 -22 5 -158 -47z"/>
</g>
</svg>
